<svg width="208" height="40" viewBox="0 0 208 40" fill="none" xmlns="http://www.w3.org/2000/svg">
<path d="M16.4498 7.29479C16.2628 7.10679 16.0088 7.00075 15.7436 7C15.4785 6.99925 15.2239 7.10385 15.0358 7.29079L15.0318 7.29479L3.29079 19.0958C3.10454 19.2832 3 19.5366 3 19.8008C3 20.065 3.10454 20.3184 3.29079 20.5058L15.0318 32.3078C15.2189 32.4957 15.473 32.6015 15.7382 32.6021C16.0033 32.6026 16.2579 32.4979 16.4458 32.3108L16.4498 32.3078L28.1918 20.5068C28.3782 20.3197 28.4829 20.0664 28.4829 19.8023C28.4829 19.5382 28.3782 19.2849 28.1918 19.0978L16.4498 7.29479ZM16.4498 25.9078C16.3573 26.0011 16.2472 26.0751 16.126 26.1258C16.0048 26.1764 15.8748 26.2026 15.7434 26.2029C15.612 26.2032 15.4819 26.1775 15.3605 26.1274C15.239 26.0773 15.1287 26.0037 15.0358 25.9108L15.0318 25.9078L9.65779 20.5058C9.47154 20.3184 9.367 20.065 9.367 19.8008C9.367 19.5366 9.47154 19.2832 9.65779 19.0958L15.0318 13.6938C15.1244 13.6006 15.2344 13.5267 15.3556 13.4761C15.4768 13.4255 15.6068 13.3994 15.7382 13.3991C15.8695 13.3988 15.9996 13.4244 16.121 13.4745C16.2424 13.5245 16.3528 13.598 16.4458 13.6908L16.4498 13.6938L21.8238 19.0958C22.01 19.2832 22.1146 19.5366 22.1146 19.8008C22.1146 20.065 22.01 20.3184 21.8238 20.5058L16.4498 25.9078Z" fill="#F97316"/>
<path fill-rule="evenodd" clip-rule="evenodd" d="M99.2122 26.3372C99.3247 26.3792 99.4444 26.3985 99.5643 26.394C99.6843 26.3983 99.8039 26.3789 99.9163 26.3369C100.029 26.295 100.132 26.2313 100.22 26.1494C100.392 25.9844 100.477 25.7703 100.477 25.5047V21.416C100.487 21.3293 100.495 21.2405 100.5 21.1495C101.029 15.911 94.6699 13.2689 94.6699 13.2689C92.2574 12.4887 91.0507 13.8442 90.1445 14.8621C89.8399 15.2044 89.5691 15.5085 89.298 15.6805C89.1411 15.7794 88.9853 15.8721 88.8319 15.9635C87.9289 16.5011 87.1095 16.989 86.6594 18.3822C86.224 20.4788 86.7236 21.2656 87.675 22.7636L87.7675 22.9093C88.0195 23.308 88.2208 23.6931 88.4117 24.0581C88.9837 25.1522 89.4612 26.0655 90.9256 26.6209C92.3515 27.1603 93.6162 26.5162 94.8271 25.8996C95.2736 25.6722 95.7128 25.4485 96.1501 25.2893C96.2868 25.2394 96.4301 25.1892 96.578 25.1373C97.2362 24.9067 97.9852 24.6442 98.6516 24.2317V25.5047C98.6471 25.6242 98.6677 25.7433 98.712 25.8543C98.7564 25.9654 98.8235 26.0659 98.9091 26.1494C98.9967 26.2314 99.0998 26.2952 99.2122 26.3372ZM50.4611 13.9909C51.1714 14.4274 51.7248 15.044 52.1226 15.8397C52.5205 16.6353 52.7194 17.5714 52.7194 18.6479V25.3877C52.7243 25.5062 52.7051 25.6245 52.6628 25.7353C52.6206 25.8462 52.5562 25.9472 52.4737 26.0324C52.3099 26.1962 52.0957 26.277 51.8301 26.277C51.5645 26.277 51.3457 26.1962 51.1737 26.0324C51.0017 25.8674 50.9163 25.6533 50.9163 25.3877V18.6479C50.9163 17.5398 50.6273 16.6622 50.0504 16.0152C49.4735 15.3681 48.7329 15.044 47.8284 15.044C46.8607 15.044 46.0697 15.3681 45.4531 16.0152C44.8364 16.6622 44.5357 17.5246 44.5521 18.6011H44.5498L44.5521 18.6479V25.3877C44.557 25.5062 44.5378 25.6245 44.4956 25.7353C44.4533 25.8462 44.3889 25.9472 44.3064 26.0324C44.1414 26.1962 43.9273 26.277 43.6617 26.277C43.396 26.277 43.1772 26.1962 43.0064 26.0324C42.8344 25.8674 42.749 25.6533 42.749 25.3877V18.6479C42.749 17.5398 42.46 16.6622 41.8831 16.0152C41.3062 15.3681 40.5644 15.044 39.6599 15.044C38.6934 15.044 37.8966 15.3599 37.2729 15.9918C36.6493 16.6236 36.3368 17.4474 36.3368 18.4607V25.3877C36.3418 25.5062 36.3225 25.6245 36.2803 25.7353C36.238 25.8462 36.1737 25.9472 36.0911 26.0324C35.9273 26.1962 35.7132 26.277 35.4476 26.277C35.1667 26.277 34.9456 26.1962 34.7806 26.0324C34.6168 25.8674 34.5349 25.6533 34.5349 25.3877V14.3887C34.5306 14.2687 34.5501 14.149 34.5923 14.0366C34.6344 13.9241 34.6984 13.8211 34.7806 13.7335C34.9444 13.5615 35.1667 13.4761 35.4476 13.4761C35.5669 13.4715 35.6858 13.492 35.7967 13.5364C35.9076 13.5807 36.0079 13.6479 36.0911 13.7335C36.1733 13.8211 36.2373 13.9241 36.2795 14.0366C36.3216 14.149 36.3411 14.2687 36.3368 14.3887V14.9328C36.6438 14.5641 37.0071 14.2462 37.4133 13.9909C38.1306 13.5545 38.9426 13.3357 39.8471 13.3357C40.768 13.3357 41.5836 13.5545 42.2926 13.9909C42.9158 14.3806 43.4312 14.9206 43.7915 15.5612C44.1952 14.9115 44.7536 14.372 45.4168 13.9909C46.1821 13.5545 47.0479 13.3357 48.0156 13.3357C48.9353 13.3357 49.7509 13.5545 50.4611 13.9909ZM65.3167 14.1664C66.1963 14.7034 66.9062 15.4782 67.3644 16.4013C67.8476 17.3538 68.0898 18.4373 68.0898 19.6554C68.0951 19.7659 68.077 19.8763 68.0366 19.9793C67.9963 20.0823 67.9347 20.1757 67.8558 20.2533C67.69 20.405 67.4708 20.485 67.2462 20.4756H57.8011C57.8589 21.1572 58.0594 21.819 58.3897 22.418C58.8016 23.1493 59.3679 23.7273 60.0852 24.1485C60.8024 24.5698 61.6297 24.7804 62.5658 24.7804C63.1274 24.7804 63.6926 24.6821 64.2624 24.4879C64.8311 24.2925 65.2886 24.0467 65.6314 23.7495C65.7963 23.6125 66.0023 23.5347 66.2165 23.5284C66.4189 23.516 66.6188 23.5784 66.7781 23.7039C66.9806 23.8923 67.0859 24.0935 67.0941 24.3124C67.0977 24.4206 67.0753 24.5281 67.0287 24.6259C66.982 24.7236 66.9126 24.8087 66.8261 24.874C66.3101 25.3105 65.656 25.6744 64.8592 25.9622C64.0635 26.2512 63.2994 26.3951 62.5658 26.3951C61.3021 26.3951 60.1823 26.1178 59.2076 25.5644C58.2329 25.0109 57.4688 24.241 56.9142 23.2581C56.3608 22.2752 56.0834 21.1531 56.0834 19.8894C56.0834 18.6093 56.3455 17.4813 56.8674 16.5066C57.3677 15.5566 58.1162 14.76 59.0333 14.2015C59.953 13.6399 61.0154 13.3591 62.2159 13.3591C63.4001 13.3591 64.4344 13.6282 65.3167 14.1664ZM62.2159 14.9738C61.3267 14.9738 60.5462 15.1844 59.8757 15.6056C59.2036 16.0289 58.6646 16.6332 58.3207 17.3491C58.0733 17.8616 57.9109 18.4109 57.8398 18.9755H66.3979C66.337 18.3577 66.1861 17.7867 65.9368 17.2672C65.594 16.5499 65.1061 15.9883 64.4742 15.5822C63.8424 15.1774 63.09 14.9738 62.2159 14.9738ZM73.7905 25.541C74.7734 26.1096 75.8803 26.394 77.1136 26.394C78.3305 26.394 79.4269 26.1131 80.4039 25.5538C81.3666 25.0036 82.1661 24.2077 82.7207 23.2476C83.2906 22.2729 83.5913 21.1765 83.6217 19.9596V8.91385C83.6217 8.63302 83.5351 8.41071 83.3643 8.24689C83.1911 8.08308 82.9735 8.00117 82.7079 8.00117C82.4423 8.00117 82.2235 8.08308 82.0526 8.24689C81.8806 8.41071 81.7952 8.63302 81.7952 8.91385V15.794C81.2804 15.0616 80.6017 14.4718 79.7592 14.0272C78.9168 13.5825 77.9725 13.3602 76.9276 13.3602C75.7247 13.3602 74.6494 13.6457 73.6981 14.2144C72.7525 14.7774 71.9729 15.5808 71.4387 16.5429C70.8852 17.5258 70.6079 18.6339 70.6079 19.866C70.6079 21.1145 70.8922 22.2296 71.4621 23.2125C72.0173 24.1819 72.8211 24.9857 73.7905 25.541ZM79.5346 24.1123C78.8255 24.5417 78.0169 24.757 77.1136 24.757C76.2244 24.757 75.4193 24.5417 74.7021 24.1123C73.9848 23.6828 73.4149 23.1025 72.9937 22.3688C72.5736 21.6352 72.3619 20.8009 72.3619 19.8648C72.3619 18.9439 72.5736 18.1143 72.9937 17.3725C73.4149 16.6318 73.9836 16.0503 74.7021 15.629C75.4205 15.2078 76.2232 14.9972 77.1136 14.9972C78.0169 14.9972 78.8255 15.2078 79.5346 15.629C80.2424 16.0485 80.8244 16.6507 81.2195 17.3725C81.6326 18.1143 81.8397 18.9439 81.8397 19.8648C81.8397 20.8009 81.6326 21.6352 81.2195 22.3688C80.8065 23.1025 80.2448 23.6828 79.5346 24.1123ZM119.669 13.9909C120.379 14.4274 120.933 15.044 121.331 15.8397C121.728 16.6353 121.927 17.5714 121.927 18.6479V25.3877C121.932 25.5062 121.913 25.6245 121.871 25.7353C121.828 25.8462 121.764 25.9472 121.682 26.0324C121.518 26.1962 121.304 26.277 121.038 26.277C120.772 26.277 120.554 26.1962 120.382 26.0324C120.21 25.8674 120.124 25.6533 120.124 25.3877V18.6479C120.124 17.5398 119.835 16.6622 119.258 16.0152C118.681 15.3681 117.941 15.044 117.036 15.044C116.069 15.044 115.278 15.3681 114.661 16.0152C114.044 16.6622 113.744 17.5246 113.76 18.6011H113.758L113.76 18.6479V25.3877C113.765 25.5062 113.746 25.6245 113.703 25.7353C113.661 25.8462 113.597 25.9472 113.514 26.0324C113.349 26.1962 113.135 26.277 112.87 26.277C112.604 26.277 112.385 26.1962 112.214 26.0324C112.042 25.8674 111.957 25.6533 111.957 25.3877V18.6479C111.957 17.5398 111.668 16.6622 111.091 16.0152C110.514 15.3681 109.772 15.044 108.868 15.044C107.901 15.044 107.104 15.3599 106.481 15.9918C105.857 16.6236 105.545 17.4474 105.545 18.4607V25.3877C105.55 25.5062 105.53 25.6245 105.488 25.7353C105.446 25.8462 105.382 25.9472 105.299 26.0324C105.135 26.1962 104.921 26.277 104.655 26.277C104.375 26.277 104.153 26.1962 103.988 26.0324C103.825 25.8674 103.743 25.6533 103.743 25.3877V14.3887C103.738 14.2687 103.758 14.149 103.8 14.0366C103.842 13.9241 103.906 13.8211 103.988 13.7335C104.152 13.5615 104.375 13.4761 104.655 13.4761C104.775 13.4715 104.894 13.492 105.005 13.5364C105.115 13.5807 105.216 13.6479 105.299 13.7335C105.381 13.8211 105.445 13.9241 105.487 14.0366C105.53 14.149 105.549 14.2687 105.545 14.3887V14.9328C105.852 14.5641 106.215 14.2462 106.621 13.9909C107.338 13.5545 108.151 13.3357 109.055 13.3357C109.976 13.3357 110.791 13.5545 111.501 13.9909C112.124 14.3803 112.639 14.9203 112.999 15.5612C113.404 14.912 113.962 14.3727 114.625 13.9909C115.39 13.5545 116.256 13.3357 117.223 13.3357C118.143 13.3357 118.959 13.5545 119.669 13.9909ZM135.064 14.2144C136.028 14.7728 136.827 15.5761 137.38 16.5429C137.949 17.5246 138.242 18.6409 138.261 19.8894V25.3877C138.265 25.5072 138.245 25.6263 138.2 25.7373C138.156 25.8484 138.089 25.9489 138.003 26.0324C137.83 26.1962 137.612 26.277 137.347 26.277C137.081 26.277 136.862 26.1962 136.692 26.0324C136.52 25.8674 136.434 25.6533 136.434 25.3877V23.9508C135.955 24.6271 135.337 25.1929 134.621 25.61C133.723 26.1319 132.705 26.394 131.567 26.394C130.364 26.394 129.288 26.1096 128.337 25.541C127.391 24.978 126.612 24.1746 126.078 23.2125C125.524 22.2296 125.247 21.1215 125.247 19.8894C125.247 18.6409 125.531 17.5258 126.101 16.5429C126.656 15.5734 127.46 14.7696 128.43 14.2144C129.412 13.6457 130.519 13.3602 131.753 13.3602C132.985 13.3602 134.088 13.6457 135.064 14.2144ZM131.753 24.757C132.656 24.757 133.464 24.5452 134.174 24.124C134.882 23.7054 135.464 23.103 135.858 22.3805C136.272 21.6398 136.479 20.8091 136.479 19.8894C136.479 18.9533 136.273 18.1178 135.858 17.3842C135.459 16.6654 134.878 16.0641 134.174 15.6407C133.464 15.2125 132.656 14.9972 131.753 14.9972C130.862 14.9972 130.058 15.2113 129.341 15.6407C128.624 16.0702 128.054 16.6517 127.633 17.3842C127.213 18.1178 127.001 18.9533 127.001 19.8894C127.001 20.8091 127.213 21.6398 127.633 22.3805C128.036 23.104 128.626 23.7061 129.341 24.124C130.073 24.5493 130.906 24.7681 131.753 24.757ZM150.375 13.9687C150.608 13.469 150.983 13.3286 151.498 13.5474C152.028 13.7651 152.177 14.1325 151.943 14.6485L144.36 31.3107C144.205 31.6699 143.979 31.8478 143.682 31.8478C143.558 31.8478 143.417 31.8185 143.262 31.7542C142.73 31.5213 142.583 31.1457 142.817 30.6321L145.146 25.4988C145.144 25.4962 145.142 25.4941 145.14 25.4919C145.137 25.4892 145.135 25.4863 145.133 25.4825L139.914 14.6707C139.804 14.4367 139.79 14.2179 139.867 14.0155C139.944 13.8131 140.101 13.6563 140.335 13.5474C140.569 13.4386 140.789 13.4187 140.991 13.4889C141.192 13.5591 141.349 13.7113 141.459 13.9453L146.02 23.5682L150.375 13.9687ZM163.208 14.2144C164.172 14.7728 164.971 15.5761 165.524 16.5429C166.093 17.5246 166.385 18.6409 166.405 19.8894V25.3877C166.41 25.5072 166.389 25.6263 166.345 25.7373C166.3 25.8484 166.233 25.9489 166.148 26.0324C165.974 26.1962 165.757 26.277 165.491 26.277C165.226 26.277 165.007 26.1962 164.836 26.0324C164.664 25.8674 164.579 25.6533 164.579 25.3877V23.9508C164.1 24.6271 163.481 25.1929 162.765 25.61C161.867 26.1319 160.849 26.394 159.711 26.394C158.508 26.394 157.433 26.1096 156.481 25.541C155.536 24.978 154.756 24.1746 154.222 23.2125C153.669 22.2296 153.391 21.1215 153.391 19.8894C153.391 18.6409 153.676 17.5258 154.245 16.5429C154.801 15.5734 155.604 14.7696 156.574 14.2144C157.557 13.6457 158.664 13.3602 159.897 13.3602C161.129 13.3602 162.233 13.6457 163.208 14.2144ZM159.897 24.757C160.8 24.757 161.609 24.5452 162.318 24.124C163.027 23.7054 163.609 23.103 164.003 22.3805C164.416 21.6398 164.623 20.8091 164.623 19.8894C164.623 18.9533 164.417 18.1178 164.003 17.3842C163.604 16.6654 163.023 16.0641 162.318 15.6407C161.609 15.2125 160.8 14.9972 159.897 14.9972C159.007 14.9972 158.203 15.2113 157.485 15.6407C156.768 16.0702 156.198 16.6517 155.777 17.3842C155.357 18.1178 155.145 18.9533 155.145 19.8894C155.145 20.8091 155.357 21.6398 155.777 22.3805C156.18 23.104 156.77 23.7061 157.485 24.124C158.217 24.5493 159.051 24.7681 159.897 24.757ZM174.976 18.9943L179.846 24.9898C179.919 25.0703 179.976 25.1647 180.012 25.2674C180.048 25.3701 180.063 25.4791 180.057 25.5878C180.041 25.7972 179.931 25.9903 179.729 26.1611C179.525 26.3319 179.316 26.4068 179.097 26.3823C178.985 26.3689 178.877 26.3318 178.781 26.2735C178.684 26.2152 178.601 26.137 178.537 26.0441L173.722 20.1269L171.961 21.7182V25.3877C171.966 25.5062 171.946 25.6245 171.904 25.7353C171.862 25.8462 171.798 25.9472 171.715 26.0324C171.55 26.1962 171.336 26.277 171.07 26.277C170.805 26.277 170.592 26.1962 170.427 26.0324C170.263 25.8674 170.181 25.6533 170.181 25.3877V8.88928C170.176 8.77094 170.195 8.65284 170.238 8.5422C170.28 8.43155 170.344 8.33067 170.427 8.24572C170.592 8.08191 170.805 8 171.07 8C171.336 8 171.55 8.08191 171.715 8.24572C171.879 8.40953 171.961 8.62366 171.961 8.88928V19.5325L178.56 13.5697C178.747 13.3977 178.942 13.3158 179.145 13.324C179.346 13.3321 179.535 13.4293 179.707 13.6165C179.879 13.8037 179.96 14.0026 179.953 14.2132C179.947 14.3206 179.917 14.4255 179.867 14.5204C179.816 14.6154 179.746 14.6982 179.66 14.7632L174.976 18.9943ZM191.397 14.1664C192.277 14.7034 192.987 15.4782 193.445 16.4013C193.928 17.3538 194.17 18.4373 194.17 19.6554C194.176 19.7659 194.158 19.8763 194.117 19.9793C194.077 20.0823 194.015 20.1757 193.936 20.2533C193.771 20.405 193.551 20.485 193.327 20.4756H183.883C183.94 21.1572 184.14 21.8191 184.47 22.418C184.882 23.1493 185.448 23.7273 186.166 24.1485C186.883 24.5698 187.71 24.7804 188.646 24.7804C189.208 24.7804 189.773 24.6821 190.343 24.4879C190.912 24.2925 191.369 24.0467 191.712 23.7495C191.877 23.6125 192.083 23.5347 192.297 23.5284C192.499 23.516 192.699 23.5784 192.859 23.7039C193.061 23.8923 193.166 24.0935 193.175 24.3124C193.178 24.4206 193.156 24.5281 193.109 24.6259C193.063 24.7236 192.993 24.8087 192.907 24.874C192.391 25.3105 191.737 25.6744 190.94 25.9622C190.144 26.2512 189.38 26.3951 188.646 26.3951C187.383 26.3951 186.263 26.1178 185.288 25.5644C184.313 25.0109 183.549 24.241 182.995 23.2581C182.441 22.2752 182.164 21.1531 182.164 19.8894C182.164 18.6093 182.426 17.4813 182.948 16.5066C183.448 15.5566 184.197 14.76 185.114 14.2015C186.034 13.6399 187.096 13.3591 188.296 13.3591C189.481 13.3591 190.515 13.6282 191.397 14.1664ZM188.296 14.9738C187.407 14.9738 186.627 15.1844 185.956 15.6056C185.284 16.0289 184.745 16.6332 184.401 17.3491C184.154 17.8616 183.991 18.4109 183.92 18.9755H192.478C192.418 18.3577 192.267 17.7867 192.017 17.2672C191.675 16.5499 191.187 15.9883 190.555 15.5822C189.923 15.1774 189.171 14.9738 188.296 14.9738ZM206.048 13.9687C206.281 13.469 206.657 13.3286 207.171 13.5474C207.701 13.7651 207.85 14.1325 207.616 14.6485L200.034 31.3107C199.878 31.6699 199.652 31.8478 199.355 31.8478C199.231 31.8478 199.091 31.8185 198.935 31.7542C198.404 31.5213 198.256 31.1457 198.49 30.6321L200.819 25.4988C200.817 25.4962 200.815 25.4941 200.813 25.4919C200.811 25.4892 200.808 25.4863 200.806 25.4825L195.587 14.6707C195.477 14.4367 195.463 14.2179 195.541 14.0155C195.618 13.8131 195.775 13.6563 196.009 13.5474C196.243 13.4386 196.463 13.4187 196.664 13.4889C196.865 13.5591 197.022 13.7113 197.132 13.9453L201.693 23.5682L206.048 13.9687ZM95.4467 16.5979C94.9988 16.3418 94.5048 16.1765 93.993 16.1115C93.4811 16.0464 92.9615 16.0829 92.4638 16.2189C91.966 16.3548 91.5 16.5876 91.0923 16.9038C90.6846 17.22 90.3432 17.6134 90.0877 18.0617C89.7018 18.7367 89.5248 19.511 89.5791 20.2867C89.6334 21.0623 89.9166 21.8044 90.3927 22.4191C90.8688 23.0338 91.5166 23.4934 92.254 23.7399C92.9915 23.9864 93.7855 24.0086 94.5355 23.8037C95.2856 23.5988 95.958 23.1761 96.4678 22.5889C96.9775 22.0018 97.3017 21.2767 97.3992 20.5053C97.4968 19.7339 97.3633 18.9509 97.0158 18.2554C96.6682 17.5599 96.1222 16.983 95.4467 16.5979ZM91.6884 22.074C91.6046 22.1366 91.4998 22.1642 91.396 22.1509C91.2923 22.1375 91.1978 22.0844 91.1326 22.0026C89.9157 20.4276 90.4902 18.9826 90.9641 18.4385C90.9974 18.3972 91.0387 18.3631 91.0855 18.3382C91.1323 18.3133 91.1837 18.298 91.2365 18.2933C91.2893 18.2886 91.3426 18.2946 91.393 18.3109C91.4435 18.3272 91.4902 18.3534 91.5303 18.3881C91.5704 18.4228 91.6031 18.4652 91.6265 18.5128C91.6499 18.5604 91.6634 18.6122 91.6664 18.6652C91.6694 18.7181 91.6617 18.7711 91.6437 18.821C91.6258 18.8709 91.598 18.9167 91.562 18.9556C91.5199 19.006 90.6458 20.0813 91.7574 21.517C91.7895 21.5581 91.8131 21.6051 91.827 21.6553C91.8409 21.7056 91.8447 21.7581 91.8383 21.8098C91.8319 21.8615 91.8154 21.9115 91.7896 21.9568C91.7639 22.0021 91.7295 22.0419 91.6884 22.074ZM92.5004 17.603C92.4489 17.6932 92.3637 17.7591 92.2635 17.7865C92.1633 17.8138 92.0564 17.8002 91.9663 17.7487C91.8761 17.6972 91.8101 17.6119 91.7828 17.5118C91.7555 17.4116 91.7691 17.3047 91.8206 17.2145C91.8726 17.1247 91.9578 17.0589 92.0579 17.0316C92.158 17.0042 92.2649 17.0174 92.3553 17.0683C92.5426 17.1771 92.6069 17.417 92.5004 17.603Z" fill="black"/>
</svg>
